<?xml version="1.0" standalone="no"?>
<!DOCTYPE svg PUBLIC "-//W3C//DTD SVG 20010904//EN"
 "http://www.w3.org/TR/2001/REC-SVG-20010904/DTD/svg10.dtd">
<svg version="1.0" xmlns="http://www.w3.org/2000/svg"
 width="577.000000pt" height="577.000000pt" viewBox="0 0 577.000000 577.000000"
 preserveAspectRatio="xMidYMid meet">
<metadata>
Created by potrace 1.14, written by Peter Selinger 2001-2017
</metadata>
<g transform="translate(0.000000,577.000000) scale(0.100000,-0.100000)"
fill="#000000" stroke="none">
<path d="M3525 4543 c-104 -17 -206 -34 -225 -37 -19 -2 -75 -12 -125 -21 -49
-9 -101 -18 -115 -20 -21 -3 -121 -19 -250 -40 -14 -2 -43 -6 -65 -10 -23 -3
-50 -7 -60 -9 -11 -2 -45 -7 -75 -11 -30 -4 -64 -9 -75 -12 -23 -5 -73 -12
-95 -14 -8 -1 -49 -7 -90 -15 -41 -7 -91 -15 -110 -18 -19 -3 -44 -7 -55 -10
-20 -3 -88 -13 -155 -22 -43 -6 -110 -15 -130 -19 -17 -3 -99 -15 -145 -21
-32 -4 -70 -12 -70 -14 0 -1 -20 -3 -45 -5 -41 -3 -70 -10 -137 -30 -13 -4
-23 -11 -23 -16 0 -5 -6 -9 -12 -9 -20 0 -75 -56 -102 -103 -45 -78 -49 -160
-20 -357 6 -39 8 -55 19 -120 4 -25 7 -52 7 -60 0 -8 4 -31 8 -50 5 -19 11
-55 14 -80 3 -25 12 -88 21 -140 9 -52 17 -106 19 -120 2 -14 6 -36 9 -50 4
-14 9 -45 12 -70 3 -25 7 -56 10 -70 3 -14 8 -38 10 -55 2 -16 7 -46 10 -65 3
-19 7 -44 9 -55 2 -11 7 -45 11 -75 5 -30 9 -62 10 -70 1 -8 4 -31 8 -50 4
-19 9 -51 12 -70 2 -19 7 -46 9 -60 3 -14 7 -43 10 -65 2 -22 7 -47 10 -55 2
-8 8 -40 11 -70 11 -85 13 -102 21 -140 4 -19 8 -44 9 -55 1 -11 5 -33 8 -50
4 -16 9 -52 13 -80 6 -50 9 -67 19 -115 3 -14 7 -43 10 -65 3 -22 7 -52 10
-67 3 -16 7 -40 9 -55 2 -16 6 -44 9 -63 3 -19 9 -57 13 -85 8 -51 10 -61 14
-70 4 -8 7 -17 15 -52 4 -18 11 -33 16 -33 5 0 9 -6 9 -14 0 -20 78 -94 123
-118 52 -26 109 -33 214 -24 62 5 99 10 208 26 33 5 78 12 100 15 22 3 54 9
70 12 17 4 33 6 37 5 4 -1 42 5 85 13 123 22 147 26 163 27 8 0 33 4 55 9 22
4 63 11 90 14 28 3 61 8 75 11 14 3 41 8 60 10 19 3 71 11 115 18 44 8 87 14
95 14 8 0 26 3 40 7 14 3 36 7 50 9 84 10 200 28 231 37 20 5 61 11 90 14 30
3 77 10 104 15 28 6 133 23 235 40 257 41 304 59 380 143 63 70 91 188 70 297
-8 44 -26 161 -36 230 -2 19 -6 44 -8 55 -1 11 -6 40 -11 65 -4 25 -9 54 -12
65 -2 11 -6 34 -8 50 -2 17 -6 41 -8 55 -3 14 -8 46 -11 70 -3 25 -8 56 -11
70 -2 14 -7 41 -9 60 -8 62 -17 114 -26 165 -9 47 -15 88 -25 160 -3 17 -7 41
-10 55 -3 14 -8 45 -11 70 -3 25 -8 56 -10 70 -3 14 -7 39 -10 55 -3 17 -12
71 -20 120 -9 50 -18 106 -20 125 -2 19 -7 51 -10 70 -8 45 -12 67 -18 110 -3
19 -8 46 -10 60 -4 22 -29 188 -42 280 -3 19 -7 46 -9 60 -8 45 -17 95 -20
115 -2 11 -6 38 -9 60 -28 181 -42 219 -105 282 -77 78 -161 84 -446 36z"/>
</g>
</svg>
